<svg width="48" height="60" viewBox="0 0 48 60" fill="none" xmlns="http://www.w3.org/2000/svg">
<path d="M42.3117 20.026V13.4026H36.2338V6.7013H30.2338V0H24.1559V6.7013H18.0779H6.07792V13.3247H0V19.9481H6.07792V26.6494H0V39.974H6.07792V46.5974H12.0779V53.2208H18.1559V60H24.1559V53.2987H30.2338V46.6753H36.2338H42.3117V40.0519H48.3896V33.4286V20.026H42.3117Z" fill="#C7B494"/>
<path d="M6.07792 13.3247H0V20.026H6.07792V13.3247Z" fill="#C7B494"/>
<path d="M12.0781 39.9741H6.07812V46.5975H12.0781V53.2209H18.156V46.5975H12.0781V39.9741Z" fill="#C7B494"/>
<path d="M42.3118 39.9741H36.2339V46.6754H42.3118V39.9741Z" fill="#C7B494"/>
<path d="M36.3116 6.70117H24.1558V13.4025H36.2337V6.70117H36.3116Z" fill="#C7B494"/>
<path d="M42.3117 33.3507V20.026H36.2338V13.4026H24.1558V6.7013H30.2338V0H24.1558V6.7013H18.0779V13.3247H6.07792V26.6494H12.0779V33.2727H6.07792V26.6494H0V39.974H12.0779V46.5974H36.2338V39.974H48.3117V33.2727H42.3117V33.3507Z" fill="#5D532E"/>
<path d="M18.1558 46.6753V60H24.1558V53.2987H30.2337V46.6753H18.1558Z" fill="#9D946C"/>
<path d="M18.156 6.70117H6.07812V13.4025H18.156V6.70117Z" fill="#9D946C"/>
<path d="M12.0781 26.6494H6.07812V33.3507H12.156V26.6494H12.0781Z" fill="#9D946C"/>
<path d="M42.3118 20.0262V13.4028H36.2339V20.1041L42.3118 20.0262V33.3509H48.3897V20.0262H42.3118Z" fill="#9D946C"/>
<path d="M28.6754 40.9868L25.6364 37.5582L32.9611 29.4543L25.6364 21.3504L28.6754 17.9219L39.117 29.4543L28.6754 40.9868ZM27.117 29.4543L16.7533 17.9219L13.7144 21.3504L21.039 29.4543L13.7144 37.5582L16.7533 40.9868L27.117 29.4543Z" fill="white"/>
</svg>
