<svg width="189" height="60" viewBox="0 0 189 60" fill="none" xmlns="http://www.w3.org/2000/svg">
<path d="M42.3117 20.026V13.4026H36.2338V6.7013H30.2338V0H24.1559V6.7013H18.0779H6.07792V13.3247H0V19.9481H6.07792V26.6494H0V39.974H6.07792V46.5974H12.0779V53.2208H18.1559V60H24.1559V53.2987H30.2338V46.6753H36.2338H42.3117V40.0519H48.3896V33.4286V20.026H42.3117Z" fill="#C7B494"/>
<path d="M6.07792 13.3247H0V20.026H6.07792V13.3247Z" fill="#C7B494"/>
<path d="M12.0781 39.974H6.07812V46.5974H12.0781V53.2208H18.156V46.5974H12.0781V39.974Z" fill="#C7B494"/>
<path d="M42.3118 39.974H36.2339V46.6753H42.3118V39.974Z" fill="#C7B494"/>
<path d="M36.3116 6.70129H24.1558V13.4026H36.2337V6.70129H36.3116Z" fill="#C7B494"/>
<path d="M42.3117 33.3507V20.026H36.2338V13.4026H24.1558V6.7013H30.2338V0H24.1558V6.7013H18.0779V13.3247H6.07792V26.6494H12.0779V33.2727H6.07792V26.6494H0V39.974H12.0779V46.5974H36.2338V39.974H48.3117V33.2727H42.3117V33.3507Z" fill="#5D532E"/>
<path d="M18.1558 46.6753V60H24.1558V53.2987H30.2337V46.6753H18.1558Z" fill="#9D946C"/>
<path d="M18.156 6.70129H6.07812V13.4026H18.156V6.70129Z" fill="#9D946C"/>
<path d="M12.0781 26.6494H6.07812V33.3507H12.156V26.6494H12.0781Z" fill="#9D946C"/>
<path d="M42.3118 20.026V13.4026H36.2339V20.1039L42.3118 20.026V33.3506H48.3897V20.026H42.3118Z" fill="#9D946C"/>
<path d="M28.6754 40.987L25.6364 37.5585L32.9611 29.4546L25.6364 21.3507L28.6754 17.9221L39.117 29.4546L28.6754 40.987ZM27.117 29.4546L16.7533 17.9221L13.7144 21.3507L21.039 29.4546L13.7144 37.5585L16.7533 40.987L27.117 29.4546Z" fill="white"/>
<path d="M64.2076 23.6104C62.9608 23.6104 61.5582 23.4546 59.9219 22.8312V19.7143C61.5582 20.5714 62.8829 20.7273 63.9738 20.7273C65.0647 20.7273 65.9998 20.4156 65.9998 19.4805C65.9998 18.7013 65.3764 18.3896 64.5193 18.3896H61.8699V15.5065H64.3634C65.1427 15.5065 65.6102 15.1948 65.6102 14.5714C65.6102 13.8701 64.9868 13.4805 63.7401 13.4805C62.805 13.4805 61.6362 13.7143 60.2336 14.4935V11.3766C61.6362 10.7533 62.9608 10.5974 64.0517 10.5974C66.8569 10.5974 68.6491 11.6883 68.6491 14.026C68.6491 15.3507 68.0258 16.2857 66.8569 16.6753C68.1037 17.1429 69.1167 18.0779 69.1167 19.8701C69.0388 22.8312 66.5452 23.6104 64.2076 23.6104Z" fill="black"/>
<path d="M69.1948 23.3766L73.6364 10.9091H76.8312L81.2727 23.3766H78.2338L77.6104 21.4286H72.9351L72.2338 23.3766H69.1948ZM73.7922 18.7792H76.6753L75.5065 15.1948C75.4286 14.8831 75.3507 14.5714 75.1948 13.948C75.1169 14.6493 75.039 14.8831 74.8831 15.1948L73.7922 18.7792Z" fill="black"/>
<path d="M81.1167 23.3766L85.0128 16.9091L81.3505 10.9091H84.857L86.8829 14.5714L88.9089 10.9091H92.4154L88.7531 16.9091L92.6492 23.3766H89.1427L86.805 19.1688L84.4674 23.3766H81.1167Z" fill="black"/>
<path d="M100.753 23.3766V18.3117C100.753 17.6104 100.753 16.8312 100.831 16.2857L96.3897 23.4546H93.5845V10.9091H96.5455V15.974C96.5455 16.6753 96.5455 17.4546 96.4676 18L100.909 10.8312H103.714V23.2987H100.753V23.3766Z" fill="black"/>
<path d="M111.429 10.5974C112.597 10.5974 113.766 10.8312 114.701 11.3766V14.4935C114 13.8701 112.987 13.4805 111.974 13.4805C110.182 13.4805 108.39 14.5714 108.39 17.2987C108.39 19.7143 110.182 20.7273 111.896 20.7273C113.065 20.7273 114.156 20.3377 114.779 19.6364V22.8312C113.766 23.3766 112.675 23.6104 111.506 23.6104C108.39 23.6104 105.351 21.7403 105.351 17.2987C105.351 12.6234 108.39 10.5974 111.429 10.5974Z" fill="black"/>
<path d="M124.987 10.9091V13.8701H121.792V23.3766H118.831V13.8701H115.636V10.9091H124.987Z" fill="black"/>
<path d="M73.0129 29.4545V41.9221H70.0519V35.2987L67.6363 39.4286H65.922L63.5065 35.2987V41.9221H60.5454V29.4545H63.3506L66.7792 35.2987L70.2077 29.4545H73.0129Z" fill="black"/>
<path d="M74.0259 42L78.4674 29.5325H81.6622L86.1038 42H83.0648L82.4415 40.052H77.7661L77.1428 42H74.0259ZM78.6233 37.3247H81.5064L80.3376 33.7403C80.2596 33.4286 80.1817 33.1169 80.0259 32.4935C79.948 33.1948 79.87 33.4286 79.7142 33.7403L78.6233 37.3247Z" fill="black"/>
<path d="M94.4418 42V36.9351C94.4418 36.2338 94.4418 35.4545 94.5197 34.9091L90.0781 42.0779H87.2729V29.6104H90.234V34.6753C90.234 35.3766 90.234 36.1558 90.1561 36.7013L94.5976 29.5325H97.4028V42H94.4418ZM94.9872 27.974V25.7143C94.1301 26.2597 93.273 26.4935 92.3379 26.4935C91.4028 26.4935 90.5457 26.3377 89.6885 25.7143V27.974C90.3898 28.5195 91.1691 28.7533 92.3379 28.7533C93.5067 28.8312 94.2859 28.5195 94.9872 27.974Z" fill="black"/>
<path d="M104.805 33.8961C107.143 33.8961 109.091 34.8312 109.091 37.9481C109.091 41.0649 107.065 42 104.805 42H99.5845V29.5325H108.156V32.4935H102.546V33.974H104.805V33.8961ZM104.727 39.1169C105.429 39.1169 105.974 38.8831 105.974 37.9481C105.974 37.013 105.351 36.7792 104.727 36.7792H102.546V39.1169H104.727Z" fill="black"/>
<path d="M112.597 42.2338C111.974 42.2338 111.429 42.0779 110.805 41.9221V39.1948C111.195 39.3506 111.662 39.4286 112.13 39.4286C112.831 39.4286 113.299 39.1948 113.61 38.5714L113.766 38.1039L109.325 29.4545H112.675L115.169 35.1428L117.195 29.4545H120.545L116.416 39.0389C115.403 41.5325 114.156 42.2338 112.597 42.2338Z" fill="black"/>
<path d="M130.13 29.3766V32.3377H126.935V41.8441H123.974V32.3377H120.779V29.3766H130.13Z" fill="black"/>
<path d="M141.896 29.4545V41.9221H138.935V37.1688H134.727V41.9221H131.766V29.4545H134.727V34.2857H138.935V29.5325H141.896V29.4545Z" fill="black"/>
<path d="M144 42V29.5325H146.961V33.4286H148.442C151.247 33.4286 153.351 34.4416 153.351 37.7143C153.351 40.987 151.247 42 148.442 42H144ZM147.039 39.1169H148.675C149.61 39.1169 150.39 38.8052 150.39 37.7143C150.39 36.6234 149.61 36.3117 148.675 36.3117H147.039V39.1169Z" fill="black"/>
<path d="M160.286 29.2208C164.338 29.2208 166.364 32.2597 166.364 35.7662C166.364 39.2727 164.338 42.3117 160.286 42.3117C156.234 42.3117 154.208 39.2727 154.208 35.7662C154.208 32.2597 156.312 29.2208 160.286 29.2208ZM160.286 32.2597C158.338 32.2597 157.325 33.7402 157.325 35.7662C157.325 37.7922 158.338 39.2727 160.286 39.2727C162.234 39.2727 163.247 37.7922 163.247 35.7662C163.325 33.7402 162.312 32.2597 160.286 32.2597Z" fill="black"/>
<path d="M167.922 42V29.5325H176.104V32.4935H170.961V42H167.922Z" fill="black"/>
<path d="M182.493 29.2208C186.545 29.2208 188.571 32.2597 188.571 35.7662C188.571 39.2727 186.545 42.3117 182.493 42.3117C178.442 42.3117 176.416 39.2727 176.416 35.7662C176.416 32.2597 178.519 29.2208 182.493 29.2208ZM182.493 32.2597C180.545 32.2597 179.532 33.7402 179.532 35.7662C179.532 37.7922 180.545 39.2727 182.493 39.2727C184.442 39.2727 185.454 37.7922 185.454 35.7662C185.532 33.7402 184.442 32.2597 182.493 32.2597Z" fill="black"/>
<path d="M60.4678 48H65.8444V48.9351H61.4808V51.1948H63.7405C64.5976 51.1948 65.221 51.3507 65.6886 51.7403C66.1561 52.1299 66.3119 52.6753 66.3119 53.4545C66.3119 54.2338 66.0782 54.8571 65.6106 55.2468C65.1431 55.6364 64.4418 55.8701 63.5847 55.8701H60.5457L60.4678 48ZM63.5067 55.013C64.1301 55.013 64.5197 54.8571 64.8314 54.6234C65.1431 54.3896 65.2989 54 65.2989 53.5325C65.2989 52.5974 64.6756 52.1299 63.5067 52.1299H61.4808V55.013H63.5067Z" fill="#9D946C"/>
<path d="M72.2336 49.9481V55.9481H71.2207V50.8831H68.883V52.2078C68.883 52.987 68.8051 53.6883 68.7271 54.2338C68.6492 54.7792 68.4934 55.1688 68.2596 55.5585C68.0258 55.8701 67.7142 56.026 67.3246 56.026C67.1687 56.026 66.9349 55.9481 66.7012 55.9481L66.7791 55.013C66.857 55.013 66.9349 55.0909 67.0129 55.0909C67.2466 55.0909 67.4804 54.9351 67.6362 54.7013C67.7921 54.4675 67.87 54.1559 67.87 53.7662C67.87 53.3766 67.9479 52.9091 67.9479 52.2078L68.0259 50.026H72.2336V49.9481Z" fill="#9D946C"/>
<path d="M77.8442 50.4935C78.2338 50.8831 78.4676 51.5065 78.4676 52.2857V55.8701H77.5325V55.0909C77.3767 55.3247 77.1429 55.5585 76.8312 55.7143C76.5196 55.8701 76.2079 55.9481 75.7403 55.9481C75.117 55.9481 74.6494 55.7922 74.2598 55.4805C73.8702 55.1688 73.7144 54.7013 73.7144 54.2338C73.7144 53.6883 73.8702 53.2987 74.2598 52.987C74.5715 52.6753 75.1949 52.5195 75.8962 52.5195H77.4546V52.2857C77.4546 51.8182 77.3767 51.4286 77.065 51.1948C76.8312 50.9611 76.4416 50.8052 75.9741 50.8052C75.6624 50.8052 75.3507 50.8831 75.039 50.9611C74.7273 51.1169 74.4936 51.1948 74.2598 51.4286L73.8702 50.6494C74.1819 50.4156 74.4936 50.1818 74.8832 50.1039C75.2728 49.9481 75.6624 49.9481 76.1299 49.9481C76.8312 49.8701 77.3767 50.1039 77.8442 50.4935ZM76.8312 54.8572C77.065 54.7013 77.2988 54.3896 77.4546 54.0779V53.2208H75.9741C75.117 53.2208 74.7273 53.5325 74.7273 54.1559C74.7273 54.4675 74.8053 54.7013 75.039 54.8572C75.2728 55.013 75.5845 55.0909 75.8962 55.0909C76.2079 55.1688 76.5975 55.0909 76.8312 54.8572Z" fill="#9D946C"/>
<path d="M84.1557 50.8831H81.1946V55.9481H80.1816V49.9481H84.1557V50.8831Z" fill="#9D946C"/>
<path d="M85.7922 55.5584C85.3247 55.3247 85.013 54.9351 84.7793 54.4675C84.5455 54 84.3896 53.4545 84.3896 52.9091C84.3896 52.3636 84.4676 51.8182 84.7793 51.3506C85.013 50.8831 85.4026 50.4935 85.7922 50.2597C86.2598 50.026 86.7273 49.8701 87.2728 49.8701C87.8182 49.8701 88.2858 50.026 88.7533 50.2597C89.2208 50.4935 89.5325 50.8831 89.7663 51.3506C90 51.8182 90.1559 52.3636 90.1559 52.9091C90.1559 53.4545 90.078 54 89.7663 54.4675C89.5325 54.9351 89.1429 55.3247 88.7533 55.5584C88.2858 55.7922 87.8182 55.948 87.2728 55.948C86.7273 55.948 86.1819 55.8701 85.7922 55.5584ZM88.2078 54.7792C88.5195 54.6234 88.6754 54.3896 88.8312 54C88.9871 53.6883 89.065 53.2987 89.065 52.9091C89.065 52.5195 88.9871 52.1299 88.8312 51.8182C88.6754 51.5065 88.4416 51.2727 88.2078 51.1169C87.8961 50.961 87.5845 50.8831 87.2728 50.8831C86.9611 50.8831 86.6494 50.961 86.3377 51.1169C86.026 51.2727 85.8702 51.5065 85.7143 51.8182C85.5585 52.1299 85.4806 52.5195 85.4806 52.9091C85.4806 53.2987 85.5585 53.6883 85.7143 54C85.8702 54.3117 86.1039 54.5454 86.3377 54.7792C86.6494 54.9351 86.9611 55.013 87.2728 55.013C87.5845 55.013 87.8961 54.9351 88.2078 54.7792Z" fill="#9D946C"/>
<path d="M96.935 55.013V57.3506H96V55.9481H91.4805V57.3506H90.5454V55.013H90.8571C91.1688 55.013 91.4805 54.7013 91.5584 54.2338C91.6363 53.7662 91.7922 52.987 91.7922 52.0519L91.8701 50.026H96.0779V55.0909H96.935V55.013ZM92.5714 53.9221C92.4935 54.3896 92.3376 54.7792 92.1039 55.013H95.1428V50.961H92.8052L92.7272 52.1299C92.7272 52.8312 92.6493 53.4545 92.5714 53.9221Z" fill="#9D946C"/>
<path d="M98.1817 48.6234C98.0259 48.4675 98.0259 48.3117 98.0259 48.1559C98.0259 48 98.1038 47.7662 98.1817 47.6883C98.3376 47.5325 98.4934 47.4546 98.6493 47.4546C98.8051 47.4546 98.9609 47.5325 99.1168 47.6104C99.2726 47.7662 99.2726 47.9221 99.2726 48.0779C99.2726 48.3117 99.1947 48.4675 99.1168 48.6234C98.9609 48.7792 98.8051 48.8572 98.6493 48.8572C98.4934 48.8572 98.3376 48.7792 98.1817 48.6234ZM98.1817 49.9481H99.1947V55.9481H98.1817V49.9481Z" fill="#9D946C"/>
<path d="M101.065 49.948H102.078V54.3117L105.429 49.948H106.286V55.9481H105.273V51.5844L102 55.9481H101.065V49.948ZM102.39 48.7792C102.078 48.5454 102 48.1558 101.922 47.6104H102.545C102.545 47.8441 102.623 48.0779 102.779 48.3117C102.935 48.4675 103.169 48.5454 103.403 48.5454C103.714 48.5454 103.948 48.4675 104.104 48.3117C104.26 48.1558 104.338 47.9221 104.338 47.6104H105.039C105.039 48.0779 104.883 48.4675 104.571 48.7792C104.26 49.013 103.87 49.1688 103.403 49.1688C103.091 49.1688 102.701 49.013 102.39 48.7792Z" fill="#9D946C"/>
<path d="M108.156 49.9481H109.169V52.5195H112.286V49.9481H113.299V55.9481H112.208V53.4546H109.091V55.9481H108.078V49.9481H108.156Z" fill="#9D946C"/>
<path d="M115.091 49.9481H116.104V54.3117L119.454 49.9481H120.312V55.9481H119.299V51.5844L116.026 55.9481H115.091V49.9481Z" fill="#9D946C"/>
<path d="M122.182 49.948H123.195V54.3117L126.545 49.948H127.402V55.9481H126.389V51.5844L123.117 55.9481H122.182V49.948ZM123.584 48.7792C123.273 48.5454 123.195 48.1558 123.117 47.6104H123.74C123.74 47.8441 123.818 48.0779 123.974 48.3117C124.13 48.4675 124.363 48.5454 124.597 48.5454C124.909 48.5454 125.143 48.4675 125.299 48.3117C125.454 48.1558 125.532 47.9221 125.532 47.6104H126.234C126.234 48.0779 126.078 48.4675 125.766 48.7792C125.454 49.013 125.065 49.1688 124.597 49.1688C124.208 49.1688 123.818 49.013 123.584 48.7792Z" fill="#9D946C"/>
<path d="M138 55.0909C137.455 55.6364 136.676 55.9481 135.663 55.9481V58.052H134.728V55.9481C133.715 55.8701 132.935 55.5584 132.39 55.0909C131.844 54.5455 131.533 53.8442 131.533 52.9091C131.533 51.974 131.844 51.2727 132.39 50.7273C132.935 50.1818 133.715 49.9481 134.728 49.8701V47.5325H135.663V49.8701C136.676 49.9481 137.455 50.2597 138 50.7273C138.546 51.2727 138.857 51.974 138.857 52.9091C138.857 53.8442 138.546 54.6234 138 55.0909ZM133.013 54.3896C133.403 54.7792 133.948 54.9351 134.65 55.013V50.8052C133.948 50.8831 133.325 51.039 133.013 51.4286C132.624 51.8182 132.468 52.2857 132.468 52.9091C132.468 53.6104 132.624 54.0779 133.013 54.3896ZM137.844 52.9091C137.844 52.2857 137.689 51.8182 137.299 51.4286C136.909 51.039 136.364 50.8831 135.663 50.8052V55.013C137.143 54.9351 137.844 54.2338 137.844 52.9091Z" fill="#9D946C"/>
<path d="M141.117 55.5584C140.649 55.3247 140.338 54.9351 140.104 54.4675C139.87 54 139.714 53.4545 139.714 52.9091C139.714 52.3636 139.792 51.8182 140.104 51.3506C140.338 50.8831 140.727 50.4935 141.117 50.2597C141.584 50.026 142.052 49.8701 142.597 49.8701C143.143 49.8701 143.61 50.026 144.078 50.2597C144.546 50.4935 144.857 50.8831 145.091 51.3506C145.325 51.8182 145.481 52.3636 145.481 52.9091C145.481 53.4545 145.403 54 145.091 54.4675C144.857 54.9351 144.468 55.3247 144.078 55.5584C143.61 55.7922 143.143 55.948 142.597 55.948C141.974 55.948 141.507 55.8701 141.117 55.5584ZM143.533 54.7792C143.844 54.6234 144 54.3896 144.156 54C144.312 53.6883 144.39 53.2987 144.39 52.9091C144.39 52.5195 144.312 52.1299 144.156 51.8182C144 51.5065 143.766 51.2727 143.533 51.1169C143.221 50.961 142.909 50.8831 142.597 50.8831C142.286 50.8831 141.974 50.961 141.662 51.1169C141.351 51.2727 141.195 51.5065 141.039 51.8182C140.883 52.1299 140.805 52.5195 140.805 52.9091C140.805 53.2987 140.883 53.6883 141.039 54C141.195 54.3117 141.429 54.5454 141.662 54.7792C141.974 54.9351 142.286 55.013 142.597 55.013C142.909 55.013 143.221 54.9351 143.533 54.7792Z" fill="#9D946C"/>
<path d="M146.805 49.9481H147.818V52.5195H150.935V49.9481H151.948V55.9481H150.935V53.4546H147.818V55.9481H146.805V49.9481Z" fill="#9D946C"/>
<path d="M159.273 55.013V57.3506H158.338V55.9481H153.818V57.3506H152.883V55.013H153.195C153.507 55.013 153.818 54.7013 153.896 54.2338C153.974 53.7662 154.13 52.987 154.13 52.0519L154.208 50.026H158.416V55.0909H159.273V55.013ZM154.909 53.9221C154.831 54.3896 154.676 54.7792 154.442 55.013H157.481V50.961H155.143L155.065 52.1299C154.987 52.8312 154.987 53.4545 154.909 53.9221Z" fill="#9D946C"/>
</svg>
